<?xml version="1.0" encoding="UTF-8" standalone="no"?>
<svg
   viewBox="0 0 80 80"
   width="512"
   height="512"
   version="1.1"
   id="svg1"
   sodipodi:docname="icon.svg"
   inkscape:version="1.4.4 (1:1.4.4+202605061435+dcaf3e7d9e)"
   inkscape:export-filename="apple-icon.png"
   inkscape:export-xdpi="96"
   inkscape:export-ydpi="96"
   xmlns:inkscape="http://www.inkscape.org/namespaces/inkscape"
   xmlns:sodipodi="http://sodipodi.sourceforge.net/DTD/sodipodi-0.dtd"
   xmlns="http://www.w3.org/2000/svg"
   xmlns:svg="http://www.w3.org/2000/svg">
  <defs
     id="defs1" />
  <sodipodi:namedview
     id="namedview1"
     pagecolor="#ffffff"
     bordercolor="#000000"
     borderopacity="0.25"
     inkscape:showpageshadow="2"
     inkscape:pageopacity="0.0"
     inkscape:pagecheckerboard="0"
     inkscape:deskcolor="#d1d1d1"
     showgrid="false"
     inkscape:zoom="1.1863374"
     inkscape:cx="188.81644"
     inkscape:cy="251.61476"
     inkscape:window-width="1848"
     inkscape:window-height="1223"
     inkscape:window-x="26"
     inkscape:window-y="23"
     inkscape:window-maximized="0"
     inkscape:current-layer="svg1" />
  <path
     style="font-weight:bold;font-size:97.3001px;font-family:'Fraunces 72pt';-inkscape-font-specification:'Fraunces 72pt Bold';text-anchor:middle;fill:#0284c7;stroke-width:2.18092"
     d="m 50.943818,27.950441 q 0,3.685747 -2.438263,6.124012 -2.438266,2.381559 -6.634345,2.381559 -4.082675,0 -6.294123,-2.324855 Q 33.365638,31.8063 33.365638,27.78033 v -3.232117 q 0,-3.685747 -1.757818,-5.727084 -1.757817,-2.098041 -4.706417,-2.098041 -2.721782,0 -4.876526,1.984634 -2.154745,1.984632 -3.402228,5.783787 -1.19078,3.742451 -1.19078,9.129313 0,7.087975 2.154744,11.964503 2.211449,4.819823 6.010603,7.31479 3.855858,2.494968 8.789091,2.494968 4.649712,0 7.995236,-1.701115 3.402228,-1.757817 5.273454,-5.443565 0.73715,-0.850556 1.190779,-1.134076 0.45363,-0.283519 0.907261,-0.283519 0.623741,0.0567 0.907261,0.680446 0.283519,0.567038 0.283519,1.417595 -0.567039,5.386862 -3.742452,9.639647 -3.118708,4.196081 -8.335458,6.577642 -5.216751,2.381559 -11.964504,2.381559 -7.655013,0 -13.665616,-3.118709 Q 7.2818874,61.292278 3.8229558,55.451787 0.36402375,49.55459 0.36402375,41.332539 q 0,-8.278755 3.57233965,-14.799692 3.5723401,-6.520938 9.9231656,-10.26339 6.407529,-3.799154 14.969804,-3.799154 7.031273,0 11.964504,2.09804 4.933231,2.041338 7.541605,5.556973 2.608376,3.515636 2.608376,7.825125 z m 17.748325,39.579256 q -3.062005,0 -5.556973,-1.531003 -2.438264,-1.587706 -3.912562,-4.139377 -1.417595,-2.551672 -1.417595,-5.556973 0,-3.062006 1.417595,-5.556973 1.474299,-2.494968 3.912562,-3.969266 2.494968,-1.531003 5.556973,-1.531003 3.062005,0 5.556973,1.531003 2.494968,1.474298 3.912562,3.969266 1.474298,2.494967 1.474298,5.556973 0,3.005301 -1.474298,5.556973 -1.417595,2.551671 -3.912562,4.139377 -2.438265,1.531003 -5.556973,1.531003 z"
     id="text1"
     aria-label="c." />
</svg>
